<svg xmlns="http://www.w3.org/2000/svg" xmlns:xlink="http://www.w3.org/1999/xlink" width="381.801" height="37.549" viewBox="0 0 381.801 37.549"><defs><style>.a{fill:#fff;}.b{clip-path:url(#a);}</style><clipPath id="a"><rect class="a" width="381.801" height="37.549"/></clipPath></defs><g transform="translate(0 0)"><g class="b" transform="translate(0 0)"><path class="a" d="M20.961,25.627a39.014,39.014,0,0,1-2.548,5.413,19.649,19.649,0,0,1-3.176,4.268,4.834,4.834,0,0,1-3.282,1.667c-1.418,0-2.7-.97-3.8-2.884a25.119,25.119,0,0,1-2.622-7.451A49.282,49.282,0,0,1,4.513,17.56a35.245,35.245,0,0,1,.7-8.038A14.3,14.3,0,0,1,7.545,3.895,4.656,4.656,0,0,1,11.357,1.86,5.481,5.481,0,0,1,14.9,3.549a25.471,25.471,0,0,1,3.915,4.77c.818,1.215,1.5,2.288,2.032,3.188l.029.048h.261l-.028-.121a48.644,48.644,0,0,1-.836-5.1c-.239-2.012-.386-3.727-.438-5.1l0-.059L19.6,1.063l-.037.105a1.7,1.7,0,0,1-.788,1.022,2.168,2.168,0,0,1-1.222.189,15.814,15.814,0,0,1-1.983-.4,16.686,16.686,0,0,0-3.615-.56A8.6,8.6,0,0,0,5.3,4.528a19.661,19.661,0,0,0-4.052,7.84A33.487,33.487,0,0,0,0,21.915c.106,4.627,1.152,8.4,3.11,11.227a9.855,9.855,0,0,0,8.6,4.272,7.328,7.328,0,0,0,1.7-.283c.705-.182,1.539-.411,2.477-.679.82-.238,1.637-.459,2.431-.658a8.147,8.147,0,0,1,1.771-.3h.094l.085-1.449c.133-1.963.274-3.619.419-4.924a27.644,27.644,0,0,1,.576-3.438l.03-.123h-.314Z" transform="translate(0 -0.424)"/><path class="a" d="M65.032,3.705A18.635,18.635,0,0,0,56.567,1.66a19.331,19.331,0,0,0-8.5,1.965A16.129,16.129,0,0,0,41.44,9.646a18.386,18.386,0,0,0-2.57,9.989,18.2,18.2,0,0,0,2.569,9.829,16.621,16.621,0,0,0,6.624,6.141,18.631,18.631,0,0,0,8.464,2.045,19.486,19.486,0,0,0,8.5-1.945,15.988,15.988,0,0,0,6.625-6,18.387,18.387,0,0,0,2.57-9.989,18.258,18.258,0,0,0-2.569-9.889,16.677,16.677,0,0,0-6.623-6.121m5.642,20.44a14.926,14.926,0,0,1-1.268,6.283,9.844,9.844,0,0,1-3.753,4.307h0a10.813,10.813,0,0,1-5.839,1.522h-.171a14.221,14.221,0,0,1-8.4-3.033,21.11,21.11,0,0,1-6.275-7.806A23.433,23.433,0,0,1,42.62,15.126a15.144,15.144,0,0,1,1.248-6.283,9.722,9.722,0,0,1,3.674-4.288,10.869,10.869,0,0,1,5.912-1.54,13.652,13.652,0,0,1,8.519,3.092,22.268,22.268,0,0,1,6.337,8.005,23,23,0,0,1,2.364,10.033" transform="translate(-15.499 -0.662)"/><path class="a" d="M116.236,2.451c-.791,0-2.1-.04-3.907-.12l-2.138-.084v.337l.353.1a8.645,8.645,0,0,1,2.959,1.44,8.733,8.733,0,0,1,2.42,4,26.612,26.612,0,0,1,1.092,8.625V31.161a.025.025,0,0,1,0,.016L117,31.155c-.582-1.111-1.608-3.364-3.049-6.7s-3.159-7.385-5.088-12.011c-2.634-6.207-4.045-9.46-4.315-9.945l-.028-.051h-.059c-.764,0-1.769-.04-2.989-.12L98.95,2.247l.085.342.053.016a3.486,3.486,0,0,1,1.494.812,2.912,2.912,0,0,1,.673,1.467,15.931,15.931,0,0,1,.2,2.893V30.323a23.216,23.216,0,0,1-.238,3.754,4.648,4.648,0,0,1-.818,2.091,3.149,3.149,0,0,1-1.626,1.043l-.071.022v.3l1.5-.129c1.189-.079,2.046-.119,2.547-.119,1.009,0,2.548.052,4.7.159l1.581.085v-.39l-.085-.013a6.569,6.569,0,0,1-3.677-1.709,9.756,9.756,0,0,1-2.347-4.464,32.033,32.033,0,0,1-.874-8.373V9.1s.009-.014.052-.028l.023-.005a.1.1,0,0,1,.014.03c1.223,2.846,2.592,6.135,4.069,9.775,1.407,3.45,2.73,6.553,3.932,9.221s2.656,5.711,4.328,9.054c.069.173.338.3.872.4a10.754,10.754,0,0,0,1.45.181c.169.01.3.013.4.013.284,0,.346-.03.383-.065l.038-.044V9.534a25.593,25.593,0,0,1,.218-3.8,4.822,4.822,0,0,1,.74-2.072A3.085,3.085,0,0,1,120.1,2.6l.067-.023V2.244l-.106.008c-1.766.132-3.053.2-3.823.2" transform="translate(-39.356 -0.895)"/><path class="a" d="M154.322,2.451c-.791,0-2.105-.04-3.907-.12l-2.138-.084v.337l.353.1a8.645,8.645,0,0,1,2.959,1.44,8.733,8.733,0,0,1,2.42,4,26.612,26.612,0,0,1,1.092,8.625V31.161a.025.025,0,0,1,0,.016l-.009-.022c-.582-1.111-1.608-3.364-3.049-6.7s-3.159-7.385-5.088-12.011c-2.634-6.207-4.045-9.46-4.315-9.945l-.028-.051h-.059c-.764,0-1.769-.04-2.989-.12l-2.525-.084.085.342.053.016a3.486,3.486,0,0,1,1.494.812,2.912,2.912,0,0,1,.673,1.467,15.931,15.931,0,0,1,.2,2.893V30.323a23.216,23.216,0,0,1-.238,3.754,4.648,4.648,0,0,1-.818,2.091,3.149,3.149,0,0,1-1.626,1.043l-.071.022v.3l1.5-.129c1.189-.079,2.046-.119,2.547-.119,1.009,0,2.548.052,4.7.159l1.581.085v-.39l-.085-.013a6.569,6.569,0,0,1-3.677-1.709,9.756,9.756,0,0,1-2.347-4.464,32.033,32.033,0,0,1-.874-8.373V9.1s.009-.014.052-.028l.023-.005a.1.1,0,0,1,.014.03c1.223,2.846,2.592,6.135,4.069,9.775,1.407,3.45,2.73,6.553,3.932,9.221s2.656,5.711,4.328,9.054c.069.173.338.3.872.4a10.754,10.754,0,0,0,1.45.181c.169.01.3.013.4.013.284,0,.346-.03.383-.065l.038-.044V9.534a25.591,25.591,0,0,1,.218-3.8,4.822,4.822,0,0,1,.74-2.072A3.085,3.085,0,0,1,158.186,2.6l.067-.023V2.244l-.106.008c-1.766.132-3.053.2-3.823.2" transform="translate(-54.542 -0.895)"/><path class="a" d="M193.7,27.519a22.186,22.186,0,0,1-2.363,5.025,9.4,9.4,0,0,1-2.842,2.864,7.145,7.145,0,0,1-3.76.943,2.343,2.343,0,0,1-1.744-.568,2.167,2.167,0,0,1-.551-1.567V16.858a.149.149,0,0,1,.051-.09.141.141,0,0,1,.09-.051h2.514a6.141,6.141,0,0,1,3.614,1.139,8.636,8.636,0,0,1,2.6,2.959l.028.052h.252l-.015-.112a18.837,18.837,0,0,0-.521-2.165l-.477-1.989c-.081-.458-.188-1.235-.318-2.3-.054-.8-.121-1.463-.2-1.964l-.013-.084h-.254l-.009.089a4.273,4.273,0,0,1-.721,2.009,4.226,4.226,0,0,1-1.619,1.385,5.4,5.4,0,0,1-2.43.508h-2.434a.17.17,0,0,1-.1-.04.111.111,0,0,1-.04-.1V4.368a2.087,2.087,0,0,1,.571-1.507,2.428,2.428,0,0,1,1.8-.589,7.671,7.671,0,0,1,3.762.826,8.313,8.313,0,0,1,2.681,2.544,22.062,22.062,0,0,1,2.323,4.588l.025.063h.325l-.044-.13a41.531,41.531,0,0,1-1.034-4.7c-.423-2.324-.664-3.864-.717-4.579L192.126.8h-.205l-.026.02c-.515.385-2.108.667-4.736.838s-4.907.259-6.735.259l-3.948-.12-1.74-.085v.265l.08.016a3.508,3.508,0,0,1,1.786.832,3.2,3.2,0,0,1,.85,1.627,13.173,13.173,0,0,1,.237,2.791V31.423a9.588,9.588,0,0,1-.531,3.612,2.9,2.9,0,0,1-1.991,1.64l-.072.02v.259l1.741-.085c1.534-.079,2.741-.12,3.586-.12,3.271,0,5.7.027,7.219.08a18.2,18.2,0,0,1,3.152.3,1.47,1.47,0,0,1,1.071.684l.027.057h.234l.007-.091c.053-.687.314-2.375.777-5.019A45.758,45.758,0,0,1,194,27.583l.043-.13h-.328Z" transform="translate(-69.675 -0.318)"/><path class="a" d="M231.363,25.627a39.012,39.012,0,0,1-2.548,5.413,19.649,19.649,0,0,1-3.176,4.268,4.834,4.834,0,0,1-3.282,1.667c-1.418,0-2.7-.97-3.8-2.884a25.12,25.12,0,0,1-2.622-7.451,49.282,49.282,0,0,1-1.016-9.081,35.245,35.245,0,0,1,.7-8.038,14.3,14.3,0,0,1,2.336-5.628,4.656,4.656,0,0,1,3.812-2.035,5.481,5.481,0,0,1,3.544,1.69,25.471,25.471,0,0,1,3.915,4.77c.818,1.215,1.5,2.288,2.032,3.188l.029.048h.261l-.028-.121a48.648,48.648,0,0,1-.836-5.1c-.239-2.012-.386-3.727-.438-5.1l0-.059L230,1.063l-.037.105a1.7,1.7,0,0,1-.788,1.022,2.168,2.168,0,0,1-1.222.189,15.813,15.813,0,0,1-1.983-.4,16.687,16.687,0,0,0-3.615-.56A8.6,8.6,0,0,0,215.7,4.528a19.661,19.661,0,0,0-4.052,7.84,33.487,33.487,0,0,0-1.24,9.546c.106,4.627,1.152,8.4,3.11,11.227a9.855,9.855,0,0,0,8.6,4.272,7.329,7.329,0,0,0,1.7-.283c.705-.182,1.539-.411,2.477-.679.82-.238,1.637-.459,2.431-.658a8.147,8.147,0,0,1,1.771-.3h.094l.085-1.449c.133-1.963.274-3.619.419-4.924a27.643,27.643,0,0,1,.576-3.438l.03-.123h-.314Z" transform="translate(-83.896 -0.424)"/><path class="a" d="M268.683,1h-.354l-.026.019a8.292,8.292,0,0,1-2.889.7,42.421,42.421,0,0,1-5.553.319,42.874,42.874,0,0,1-5.474-.319,8.541,8.541,0,0,1-2.968-.7L251.393,1h-.354l-1.611,9.06-.02.117h.264l.025-.06A21.84,21.84,0,0,1,251.6,6.776a16.242,16.242,0,0,1,2.637-3.212,3.729,3.729,0,0,1,2.388-1.132h.9V31.5a6.013,6.013,0,0,1-.916,3.69,4.518,4.518,0,0,1-2.677,1.56l-.078.017v.263l1.78-.085c1.931-.079,3.366-.12,4.266-.12.872,0,2.28.04,4.185.12l1.74.085v-.263l-.077-.018a4.468,4.468,0,0,1-2.6-1.56,6.016,6.016,0,0,1-.916-3.69V2.432h.859a3.729,3.729,0,0,1,2.388,1.132,17.3,17.3,0,0,1,2.677,3.213,21.849,21.849,0,0,1,1.907,3.336l.025.06h.265l-1.658-9.1Z" transform="translate(-99.45 -0.397)"/><path class="a" d="M320.8,1h-.354l-.026.019a8.292,8.292,0,0,1-2.889.7,42.428,42.428,0,0,1-5.553.319,42.873,42.873,0,0,1-5.474-.319,8.541,8.541,0,0,1-2.968-.7L303.513,1h-.354l-1.611,9.06-.02.117h.264l.025-.06a21.844,21.844,0,0,1,1.907-3.337,16.243,16.243,0,0,1,2.637-3.212,3.729,3.729,0,0,1,2.388-1.132h.9V31.5a6.013,6.013,0,0,1-.916,3.69,4.518,4.518,0,0,1-2.677,1.56l-.078.017v.263l1.78-.085c1.931-.079,3.366-.12,4.266-.12.872,0,2.281.04,4.185.12l1.74.085v-.263l-.077-.018a4.467,4.467,0,0,1-2.6-1.56,6.011,6.011,0,0,1-.917-3.69V2.432h.859A3.729,3.729,0,0,1,317.6,3.564a17.265,17.265,0,0,1,2.677,3.213,21.8,21.8,0,0,1,1.907,3.336l.026.06h.265l-1.658-9.1Z" transform="translate(-120.232 -0.397)"/><path class="a" d="M355.513,2.52c-.579,0-1.6-.04-3.027-.12l-1.86-.084v.26l.074.02a2.67,2.67,0,0,1,1.849,1.638,9.514,9.514,0,0,1,.55,3.573v8.819a1.467,1.467,0,0,1-.054.484c-.023.063-.106.095-.245.095h-7.1c-.14,0-.223-.032-.247-.095a1.485,1.485,0,0,1-.053-.484V7.807c0-3.021.782-4.775,2.322-5.212l.072-.02V2.316l-1.821.085c-1.376.079-2.368.119-2.947.119s-1.6-.04-3.028-.12l-1.9-.084v.26l.074.02a2.726,2.726,0,0,1,1.87,1.639,9.224,9.224,0,0,1,.571,3.572V32.029a9.217,9.217,0,0,1-.571,3.571,2.729,2.729,0,0,1-1.87,1.64l-.074.019v.26l1.98-.084c1.428-.079,2.419-.12,2.947-.12.5,0,1.466.04,2.869.12l1.9.084v-.258l-.072-.02c-1.54-.437-2.322-2.19-2.322-5.212V18.262a1.539,1.539,0,0,1,.053-.484c.024-.064.106-.1.247-.1h7.1q.209,0,.245.1a1.539,1.539,0,0,1,.054.484V32.029a9.506,9.506,0,0,1-.55,3.573A2.638,2.638,0,0,1,350.7,37.24l-.074.019v.26l1.94-.084c1.428-.079,2.419-.12,2.947-.12.5,0,1.48.04,2.909.12l1.9.084V37.26l-.073-.02c-1.567-.437-2.362-2.19-2.362-5.211V7.807c0-3.021.795-4.775,2.362-5.212l.073-.02V2.316l-1.861.085c-1.376.079-2.368.119-2.947.119" transform="translate(-134.813 -0.923)"/><path class="a" d="M397.83,27.519a22.188,22.188,0,0,1-2.362,5.025,9.4,9.4,0,0,1-2.842,2.864,7.146,7.146,0,0,1-3.76.943,2.345,2.345,0,0,1-1.745-.568,2.17,2.17,0,0,1-.55-1.567V16.858a.191.191,0,0,1,.14-.14h2.514a6.138,6.138,0,0,1,3.614,1.139,8.639,8.639,0,0,1,2.6,2.959l.028.052h.252l-.015-.112a18.957,18.957,0,0,0-.521-2.165l-.477-1.989c-.081-.456-.188-1.233-.318-2.3-.054-.8-.121-1.46-.2-1.964l-.013-.084h-.254l-.01.089a4.27,4.27,0,0,1-.721,2.009,4.226,4.226,0,0,1-1.619,1.385,5.4,5.4,0,0,1-2.43.508h-2.434a.167.167,0,0,1-.1-.041.109.109,0,0,1-.04-.1V4.368a2.091,2.091,0,0,1,.571-1.507,2.427,2.427,0,0,1,1.8-.589,7.671,7.671,0,0,1,3.762.826,8.319,8.319,0,0,1,2.681,2.544,22.108,22.108,0,0,1,2.324,4.588l.024.063h.325l-.044-.13a41.7,41.7,0,0,1-1.033-4.7c-.423-2.326-.665-3.866-.717-4.579L396.261.8h-.205l-.026.02c-.515.385-2.108.667-4.735.838s-4.906.259-6.734.259l-3.95-.12-1.739-.085v.265l.08.016a3.5,3.5,0,0,1,1.785.832,3.181,3.181,0,0,1,.85,1.627,13.175,13.175,0,0,1,.238,2.791V31.423a9.61,9.61,0,0,1-.53,3.612,2.9,2.9,0,0,1-1.991,1.64l-.072.02v.259l1.741-.085c1.534-.079,2.741-.12,3.587-.12,3.27,0,5.7.027,7.219.08a18.187,18.187,0,0,1,3.152.3,1.473,1.473,0,0,1,1.071.684l.026.057h.236l.006-.091c.052-.683.314-2.371.777-5.019a46.105,46.105,0,0,1,1.094-5.173l.043-.13h-.328Z" transform="translate(-151.072 -0.318)"/><path class="a" d="M451.519,2.414c-1.3-.026-2.822-.079-4.531-.159h-.9v.3l.081.015a4.456,4.456,0,0,1,3.042,2.7,14.24,14.24,0,0,1,1.187,6.3,22.331,22.331,0,0,1-.159,2.721c-.106.861-.347,2.106-.716,3.7-.374,1.616-.884,3.608-1.516,5.923l-2.06,7.818-6.408-24.02a4.918,4.918,0,0,1,.011-3.518,3.579,3.579,0,0,1,2.313-1.628l.073-.02v-.3l-2.416.084c-1.655.053-3.138.079-4.407.079s-2.729-.04-4.365-.12l-.1,0v.245l.055.028a6.05,6.05,0,0,1,2.18,1.726,10.926,10.926,0,0,1,1.44,3.4L442.5,37.456l.019.068,2.586.17,5.728-21.669.4-1.676c.718-3.082,1.288-5.363,1.695-6.779A24.686,24.686,0,0,1,454.1,4.21a3.577,3.577,0,0,1,1.16-1.573l.046-.029V2.327l-.106.007c-1.141.079-2.379.106-3.682.079" transform="translate(-171.718 -0.897)"/><path class="a" d="M477.645,2.52c-.579,0-1.6-.04-3.028-.12l-1.9-.084v.26l.074.02a2.724,2.724,0,0,1,1.869,1.639,9.223,9.223,0,0,1,.571,3.571l-.04,24.225a8.84,8.84,0,0,1-.531,3.57,2.724,2.724,0,0,1-1.869,1.64l-.074.019v.26l1.98-.084c1.429-.079,2.42-.12,2.947-.12.5,0,1.466.04,2.869.12l1.9.084V37.26l-.072-.02c-1.541-.437-2.323-2.19-2.323-5.212V7.807c0-3.021.782-4.775,2.323-5.212l.072-.02V2.316l-1.822.085c-1.376.079-2.368.119-2.947.119" transform="translate(-188.493 -0.923)"/><path class="a" d="M505.6,20.211a46.878,46.878,0,0,0-3.3-3.781,41.562,41.562,0,0,1-3.264-3.6A13.619,13.619,0,0,1,497.079,9.4a10.963,10.963,0,0,1-.731-4.034,4.331,4.331,0,0,1,.875-2.849,3.324,3.324,0,0,1,2.7-1.042,3.943,3.943,0,0,1,2.939,1.5,20.925,20.925,0,0,1,2.8,4.31c.793,1.482,1.491,2.9,2.071,4.223l.037.082.289-.1-.017-.085c-.317-1.586-.606-3.556-.857-5.857A45.048,45.048,0,0,1,506.842.1l0-.1h-.32V.1a2.168,2.168,0,0,1-.379,1.318,1.132,1.132,0,0,1-.957.5,8.868,8.868,0,0,1-2.048-.4c-.556-.159-1.1-.287-1.626-.382A8.885,8.885,0,0,0,499.959,1a7.6,7.6,0,0,0-3.457.848,7,7,0,0,0-2.752,2.529,7.5,7.5,0,0,0-1.073,4.1,11.069,11.069,0,0,0,.725,4.087A14.821,14.821,0,0,0,495.331,16a50.409,50.409,0,0,0,3.359,3.918,29.891,29.891,0,0,1,4.435,6.124,12.343,12.343,0,0,1,1.644,5.7,5.332,5.332,0,0,1-1.075,3.449,3.954,3.954,0,0,1-3.255,1.32,4.194,4.194,0,0,1-3.274-1.779,13.629,13.629,0,0,1-2.337-4.675,22.658,22.658,0,0,1-.954-6.019l0-.1h-.313l0,.1c-.054,2.438-.207,4.832-.459,7.114s-.54,4.216-.856,5.716l-.025.12h.3l.028-.049a2.069,2.069,0,0,1,1.91-1.108,9.658,9.658,0,0,1,2.326.475c.713.212,1.346.38,1.882.5a7.751,7.751,0,0,0,1.7.182,7.852,7.852,0,0,0,4.506-1.254,7.69,7.69,0,0,0,2.748-3.335,11.341,11.341,0,0,0,.907-4.569,10.386,10.386,0,0,0-.786-3.968,15.91,15.91,0,0,0-2.128-3.654" transform="translate(-196.267 0)"/><path class="a" d="M526.159,2.52c-.579,0-1.6-.04-3.028-.12l-1.9-.084v.26l.074.02a2.724,2.724,0,0,1,1.869,1.639,9.222,9.222,0,0,1,.571,3.571l-.04,24.225a8.839,8.839,0,0,1-.531,3.57,2.724,2.724,0,0,1-1.869,1.64l-.074.019v.26l1.98-.084c1.429-.079,2.42-.12,2.947-.12.5,0,1.466.04,2.869.12l1.9.084V37.26l-.072-.02c-1.541-.437-2.323-2.19-2.323-5.212V7.807c0-3.021.782-4.775,2.323-5.212l.072-.02V2.316l-1.822.085c-1.376.079-2.368.119-2.947.119" transform="translate(-207.837 -0.923)"/><path class="a" d="M565.973,3.705a18.635,18.635,0,0,0-8.464-2.045,19.33,19.33,0,0,0-8.5,1.965,16.136,16.136,0,0,0-6.625,6.022,18.386,18.386,0,0,0-2.57,9.989,18.2,18.2,0,0,0,2.57,9.829A16.624,16.624,0,0,0,549,35.606a18.629,18.629,0,0,0,8.465,2.045,19.486,19.486,0,0,0,8.5-1.945,16,16,0,0,0,6.625-6,18.388,18.388,0,0,0,2.569-9.989A18.254,18.254,0,0,0,572.6,9.827a16.673,16.673,0,0,0-6.623-6.121m5.642,20.44a14.94,14.94,0,0,1-1.267,6.283,9.846,9.846,0,0,1-3.754,4.307,10.9,10.9,0,0,1-6.011,1.521,14.22,14.22,0,0,1-8.4-3.033,21.1,21.1,0,0,1-6.276-7.806,23.443,23.443,0,0,1-2.344-10.292,15.139,15.139,0,0,1,1.248-6.283,9.726,9.726,0,0,1,3.674-4.288,10.872,10.872,0,0,1,5.913-1.54,13.654,13.654,0,0,1,8.519,3.092,22.256,22.256,0,0,1,6.336,8.005,23,23,0,0,1,2.365,10.033" transform="translate(-215.246 -0.662)"/><path class="a" d="M620.661,2.252c-1.767.132-3.053.2-3.823.2-.791,0-2.106-.04-3.906-.12l-2.139-.084v.337l.353.1a8.664,8.664,0,0,1,2.959,1.44,8.74,8.74,0,0,1,2.419,4,26.613,26.613,0,0,1,1.092,8.626v14.4a.022.022,0,0,1,0,.016l-.008-.022c-.583-1.111-1.608-3.364-3.05-6.7s-3.151-7.367-5.087-12.01c-2.635-6.208-4.046-9.461-4.314-9.946l-.028-.051h-.059c-.764,0-1.769-.04-2.989-.12l-2.525-.084.085.342.053.016a3.494,3.494,0,0,1,1.494.812,2.91,2.91,0,0,1,.673,1.467,15.986,15.986,0,0,1,.2,2.893V30.323a23.249,23.249,0,0,1-.237,3.754A4.644,4.644,0,0,1,601,36.168a3.15,3.15,0,0,1-1.626,1.044l-.071.021v.3l1.5-.129c1.189-.079,2.046-.119,2.547-.119,1.008,0,2.547.052,4.7.159l1.581.085v-.39l-.085-.013a6.57,6.57,0,0,1-3.677-1.709,9.756,9.756,0,0,1-2.347-4.464,32.005,32.005,0,0,1-.874-8.373V9.1a.109.109,0,0,1,.052-.028.139.139,0,0,1,.023-.005.1.1,0,0,1,.014.03c1.223,2.846,2.592,6.135,4.07,9.775,1.405,3.448,2.728,6.55,3.932,9.221s2.66,5.719,4.328,9.054c.069.173.337.3.871.4a10.842,10.842,0,0,0,1.45.182h0c.168.009.3.013.4.013.284,0,.347-.031.384-.066l.039-.044V9.534a25.561,25.561,0,0,1,.218-3.8,4.815,4.815,0,0,1,.74-2.072A3.085,3.085,0,0,1,620.7,2.6l.067-.023V2.244Z" transform="translate(-238.967 -0.895)"/></g></g></svg>